<?xml version="1.0" standalone="no"?>
<!DOCTYPE svg PUBLIC "-//W3C//DTD SVG 20010904//EN"
 "http://www.w3.org/TR/2001/REC-SVG-20010904/DTD/svg10.dtd">
<svg version="1.0" xmlns="http://www.w3.org/2000/svg"
 width="256.000000pt" height="256.000000pt" viewBox="0 0 256.000000 256.000000"
 preserveAspectRatio="xMidYMid meet">
<metadata>
Created by potrace 1.11, written by Peter Selinger 2001-2013
</metadata>
<g transform="translate(0.000000,256.000000) scale(0.100000,-0.100000)"
fill="#000000" stroke="none">
<path d="M1115 2044 c-347 -51 -616 -197 -756 -412 -116 -177 -128 -362 -37
-552 33 -69 57 -101 127 -171 47 -47 113 -103 146 -124 33 -20 62 -39 64 -41
3 -3 -5 -11 -16 -19 -12 -8 -96 -74 -187 -146 -150 -119 -182 -149 -158 -149
4 0 120 39 257 86 391 134 360 126 441 108 96 -21 338 -29 455 -15 345 40 663
231 780 466 42 86 59 157 59 253 0 177 -92 349 -257 481 -122 97 -267 164
-453 208 -84 19 -138 25 -270 28 -91 2 -178 1 -195 -1z m763 -741 c2 -334 0
-381 -13 -387 -13 -5 -211 115 -312 189 -22 15 -23 21 -23 185 l0 169 58 43
c31 23 102 75 156 115 55 41 107 72 115 71 14 -3 16 -46 19 -385z m-393 2 l0
-350 -385 0 -385 0 -3 353 -2 352 387 -2 388 -3 0 -350z"/>
</g>
</svg>
